PathFileType	4	(X/Y/Z)	F:\MotionCapture\20160217\3\Generated_files\EMG_test03-Dynamic.trc
DataRate	CameraRate	NumFrames	NumMarkers	Units	OrigDataRate	OrigDataStartFrame	OrigNumFrames
120.00	120.00	       8	39	mm	120.00	278	       739
Frame#	Time	Top.Head			Front.Head			Rear.Head			R.Shoulder			R.Offset			R.Elbow			R.Wrist			L.Shoulder			L.Elbow			L.Wrist			R.ASIS			L.ASIS			V.Sacral			R.Thigh			R.Knee			R.Shank			R.Ankle			R.Heel			R.Toe			L.Thigh			L.Knee			L.Shank			L.Ankle			L.Heel			L.Toe			R1			R2			R3			R4			R5			R6			R7			L1			L2			L3			L4			L5			L6			L7			V_Mid_ASIS			V_Pelvis_Origin			V_R.Hip_JC			V_L.Hip_JC			V_R.Knee_JC			V_L.Knee_JC			V_R.Ankle_JC			V_L.Ankle_JC			V_Mid_Hip			V_Mid_Shoulder			V_R.Hand			V_L.Hand			V_R.Toe_Offset_Static			V_L.Toe_Offset_Static			V_R.Toe_Offset			V_L.Toe_Offset			
		X1	Y1	Z1	X2	Y2	Z2	X3	Y3	Z3	X4	Y4	Z4	X5	Y5	Z5	X6	Y6	Z6	X7	Y7	Z7	X8	Y8	Z8	X9	Y9	Z9	X10	Y10	Z10	X11	Y11	Z11	X12	Y12	Z12	X13	Y13	Z13	X14	Y14	Z14	X15	Y15	Z15	X16	Y16	Z16	X17	Y17	Z17	X18	Y18	Z18	X19	Y19	Z19	X20	Y20	Z20	X21	Y21	Z21	X22	Y22	Z22	X23	Y23	Z23	X24	Y24	Z24	X25	Y25	Z25	X26	Y26	Z26	X27	Y27	Z27	X28	Y28	Z28	X29	Y29	Z29	X30	Y30	Z30	X31	Y31	Z31	X32	Y32	Z32	X33	Y33	Z33	X34	Y34	Z34	X35	Y35	Z35	X36	Y36	Z36	X37	Y37	Z37	X38	Y38	Z38	X39	Y39	Z39	

278	2.308	-2183.32935	115.87671	1715.18030	-2068.20679	117.29874	1635.50391	-2289.81665	120.45315	1643.05737	-2220.65967	-81.45404	1415.38708	-2370.26880	181.24600	1273.32141	-2223.41406	-219.23811	1103.79346	-2010.16846	-189.41064	952.44519	-2216.17334	325.88080	1409.78638	-2314.79224	443.91177	1114.92078	-2279.91309	481.88751	859.64221	-2194.47070	-28.75909	929.77789	-2166.95752	256.70538	938.69482	-2402.21484	144.50360	935.79944	-2215.02661	43.36761	547.03168	-2309.61499	12.91457	451.89944	-2355.76855	100.91567	227.02017	-2441.03174	42.57875	70.48972	-2508.86060	107.31313	47.39548	-2299.10181	52.09818	37.07117	-2014.61584	224.55110	684.25055	-2035.36621	286.33847	497.01617	-2011.79834	202.71698	360.36560	-2076.87866	237.51215	85.34604	-2139.79028	179.94209	71.16165	-1944.94019	239.23517	74.72492	-2251.59473	69.57986	35.52292	-2292.00000	90.00955	42.27889	-2387.13184	130.86809	50.10181	-2461.72925	135.81891	43.56559	-2480.26660	62.44277	46.07934	-2407.59912	31.60105	34.47393	-2342.05713	9.70079	33.56919	-1903.11670	219.59781	83.83021	-1931.97961	204.60199	80.82872	-2016.69226	159.36253	87.50787	-2098.04297	151.88100	77.19899	-2116.78760	221.70877	68.55996	-2040.65747	254.90395	57.24955	-1980.44507	265.18845	63.24913																																																	3710.54199	-1519.50342	-601.87549	
279	2.317	-2171.65723	115.22313	1712.61926	-2056.09521	117.07959	1632.57495	-2278.18286	120.19782	1640.38269	-2209.03101	-81.63337	1412.72888	-2358.90308	181.27209	1270.59778	-2208.14185	-220.47031	1101.44177	-1991.07935	-189.57858	956.40991	-2205.16260	325.75708	1407.26160	-2308.00879	444.16479	1114.61487	-2279.03784	484.14191	859.19647	-2183.37085	-30.36750	927.60669	-2154.42871	255.82460	935.29871	-2390.62769	145.06514	933.49365	-2206.82422	42.52143	544.73828	-2303.81812	12.98964	450.62811	-2352.85278	100.54948	226.23338	-2441.62158	41.98555	72.00024	-2508.38867	108.28839	48.76323	-2299.03149	51.93854	36.98080	-2002.86694	223.35184	681.82477	-2021.68982	283.83572	494.37320	-1992.11230	200.75894	359.29697	-2043.45349	240.97820	82.55792	-2103.70020	180.63919	63.58828	-1909.49548	239.48178	77.95985	-2251.38550	69.19891	35.41293	-2291.88281	89.80595	42.24611	-2386.65869	131.23376	50.62790	-2461.15015	136.38855	45.08417	-2480.27954	62.80304	47.56808	-2407.43628	32.07443	34.56067	-2342.22314	10.20965	33.21867	-1868.25037	219.61426	89.27510	-1896.53516	204.23338	84.73417	-1982.54980	159.17863	87.00431	-2062.55322	152.60300	72.03703	-2080.22046	222.86676	61.85581	-2003.56921	255.70329	54.44411	-1944.49561	265.79626	65.24916																																																	3711.02515	-1517.22095	-604.14441	
280	2.325	-2159.94775	115.07980	1709.83740	-2044.73169	117.31235	1630.33716	-2266.44531	120.03191	1637.68347	-2197.23535	-81.34212	1409.46729	-2347.40015	181.41904	1267.71667	-2192.48096	-221.10692	1099.20068	-1972.32727	-189.56932	960.08130	-2194.51660	326.09061	1404.77979	-2301.33716	444.10172	1114.42419	-2278.57983	486.71570	858.55444	-2172.81787	-30.25773	925.65869	-2142.00952	256.18475	932.46295	-2378.65063	145.39835	930.88397	-2199.74390	39.97672	543.27539	-2298.00513	12.12046	449.42493	-2349.57007	101.37588	225.48305	-2440.23682	44.04399	71.61099	-2507.77100	109.69385	49.87445	-2298.97729	51.81985	36.86058	-1990.69897	222.10260	678.23706	-2008.63159	281.25311	491.60229	-1972.67310	199.53319	358.58588	-2010.64697	242.41748	82.12331	-2068.51147	181.22301	57.66610	-1875.50549	240.47531	82.02146	-2250.97095	68.75727	35.14973	-2291.39209	89.68437	42.06958	-2386.16675	131.35168	50.87899	-2460.41870	137.40373	45.86291	-2480.00562	63.94924	48.52177	-2407.38721	32.57135	34.63075	-2342.40771	10.58779	33.18361	-1834.54871	220.19516	94.65162	-1862.50195	204.65756	88.92883	-1947.80823	159.74455	85.97021	-2027.60950	153.21857	67.67297	-2044.73865	223.65030	57.27149	-1968.61206	256.71030	55.15758	-1910.18127	266.68765	68.83267																																																	3711.52246	-1514.91650	-606.34436	
281	2.333	-2147.92188	115.25832	1706.94092	-2033.38318	116.67987	1627.20227	-2254.66846	119.85957	1634.85291	-2185.36670	-80.93081	1406.34656	-2335.79272	181.67482	1264.80444	-2177.42529	-222.28973	1096.95837	-1954.12830	-189.53249	963.84637	-2183.20337	326.97763	1402.74414	-2294.23096	443.99265	1113.89111	-2277.58667	489.06223	858.39075	-2161.74243	-31.73679	923.35840	-2128.98901	254.66391	928.97614	-2366.58179	146.06129	928.39111	-2191.65747	38.92591	541.03204	-2292.06470	11.65871	448.55768	-2346.52930	101.35099	225.39613	-2439.65967	44.89762	72.74471	-2507.06421	111.38250	51.71013	-2298.96753	51.76762	36.81472	-1978.92871	219.91628	674.72729	-1996.52417	278.62305	488.88947	-1953.99707	198.16135	357.85132	-1977.21130	242.60004	79.93410	-2034.17773	181.92322	52.78403	-1842.51282	241.65320	86.43196	-2250.52002	68.50333	34.77189	-2290.91187	89.48402	41.84874	-2385.49121	131.38277	50.91353	-2459.22925	138.18082	47.54078	-2479.57788	65.10706	49.86497	-2407.28467	33.21326	34.80941	-2342.64795	10.92204	33.19326	-1801.92444	221.13487	100.12230	-1829.81494	205.88431	93.50313	-1914.67786	160.34741	86.27597	-1993.60791	154.10110	64.01340	-2010.65759	224.33577	53.98886	-1934.46094	258.51132	55.16094	-1876.21277	267.66110	71.05289																																																	-1914.67786	160.34741	86.27597	3422.52441	-1384.03967	-1864.39355	
282	2.342	-2136.36304	115.08655	1704.37427	-2020.63330	117.21418	1624.21326	-2242.82202	120.04369	1632.08643	-2174.13403	-80.81674	1403.38208	-2324.13354	182.08813	1261.89758	-2162.61157	-223.37679	1094.85461	-1936.21631	-189.39597	966.76691	-2171.67065	326.68338	1400.26575	-2286.77246	444.12515	1113.27466	-2275.87817	491.22983	857.89673	-2150.19800	-30.99738	920.72925	-2116.11548	255.52252	926.02679	-2354.37231	146.27223	926.07794	-2183.18262	37.24337	538.70123	-2285.62402	11.27195	447.02069	-2342.94238	101.23931	225.16927	-2439.47852	45.31382	73.91277	-2506.44971	112.25465	53.91570	-2298.96387	51.65919	36.77127	-1966.36755	219.96927	670.27191	-1984.39331	276.07724	486.18503	-1934.81470	196.60489	357.32883	-1946.32947	244.29245	79.46648	-2001.13477	182.52469	48.68098	-1811.29651	242.31299	91.07877	-2250.26685	68.16537	34.62462	-2290.78125	89.36787	41.75368	-2384.57642	132.41237	52.07256	-2458.74976	139.26593	49.10422	-2478.90869	66.46687	50.90271	-2407.43140	33.79271	35.25420	-2342.89819	11.18066	33.17794	-1770.78125	222.69525	105.77982	-1798.96436	206.85132	98.46204	-1882.96057	161.04012	87.44644	-1961.13647	154.75539	62.22530	-1978.03650	225.33124	51.84382	-1902.27698	258.82556	57.15609	-1845.26892	268.25970	75.40193																																																	-1799.03967	206.90622	98.48782	
283	2.350	-2124.56030	115.14020	1701.53564	-2009.85632	117.11671	1621.25171	-2230.92749	120.23122	1629.27246	-2162.23047	-80.29900	1400.37866	-2312.34082	182.51265	1258.87476	-2147.21753	-223.56920	1092.69250	-1918.60339	-189.17978	969.81580	-2159.97510	326.80212	1397.86682	-2279.27661	444.24353	1112.50476	-2273.60547	492.78223	857.44989	-2138.28540	-31.90048	918.54498	-2102.77686	253.96841	923.03479	-2341.99146	147.01234	923.62225	-2175.73315	35.19220	536.76221	-2279.15967	10.96007	446.07788	-2339.94922	102.05257	225.11945	-2437.87134	47.00868	74.38242	-2505.77197	113.28684	56.17239	-2299.00366	51.53799	36.62533	-1954.92761	218.28249	665.98792	-1971.92700	273.66791	483.10751	-1917.13379	196.07130	357.08441	-1916.49207	245.19022	79.49066	-1969.81873	183.25887	45.92243	-1781.85010	243.24498	96.34431	-2250.16553	67.92648	34.49188	-2290.58838	89.20230	41.60290	-2383.78003	132.56238	52.60633	-2457.97681	140.27754	50.54977	-2478.90137	66.87763	53.51249	-2407.29395	34.30576	35.35451	-2343.00244	11.30133	33.06270	-1741.89001	223.63612	111.83926	-1769.20056	207.76059	103.35801	-1852.96899	162.07051	89.10835	-1930.21094	155.58595	60.56886	-1946.89160	226.10878	50.45211	-1871.28503	259.61768	58.78229	-1814.42346	269.66879	78.63630																																																	-2308.79834	19.27616	-88.97726	-2925.50439	565.86255	566.45007	-2203.77173	-256.18094	956.07806	
284	2.358	-2112.46606	115.36864	1698.70776	-1996.74854	117.07594	1618.56494	-2219.01733	120.38963	1626.49915	-2150.46924	-80.15338	1397.03723	-2300.49268	183.00975	1255.88379	-2132.66528	-224.34749	1090.69519	-1901.44531	-188.75623	972.49493	-2148.02954	327.52621	1395.36633	-2271.24170	444.62494	1112.09351	-2270.54102	494.77118	857.23700	-2126.82520	-31.65527	915.89026	-2089.61377	254.74393	920.35510	-2329.24292	147.82787	921.07629	-2166.87915	33.76555	534.60938	-2272.58569	10.35663	445.14661	-2335.11914	100.29082	223.71205	-2436.82104	47.66108	75.12897	-2505.16260	114.26942	58.91769	-2298.89941	51.11695	36.62002	-1944.32458	216.67615	660.86536	-1960.03650	272.07443	480.59189	-1901.09985	194.94873	356.67822	-1888.08691	245.42606	79.89660	-1940.37329	184.01706	44.15234	-1754.12903	243.65230	101.13383	-2249.84204	67.12392	34.53676	-2290.37354	89.05463	41.44852	-2383.11987	132.73717	53.46967	-2457.32642	140.89375	53.32619	-2478.41211	67.33501	55.68124	-2407.22876	34.63069	36.30814	-2343.02661	11.38539	33.02837	-1714.50488	223.77280	117.61059	-1741.73596	208.14287	108.43471	-1824.16089	162.84550	90.28607	-1901.38550	155.96898	60.16164	-1917.64917	226.67432	49.80972	-1842.25745	260.38931	60.99271	-1786.37903	270.51813	83.18077																																																	-2189.77075	-256.20282	956.11993	3416.63013	-1375.57568	-1900.00098	
285	2.367	-2100.54785	115.49457	1696.08826	-1985.96582	117.74654	1616.60828	-2206.93433	120.76502	1623.86475	-2139.08374	-79.55245	1394.50415	-2288.47290	183.90672	1253.02637	-2117.75049	-224.09129	1088.48108	-1885.30432	-188.60550	974.69287	-2136.80518	327.98019	1393.01135	-2263.13770	444.99631	1111.68237	-2268.16113	496.59601	856.98578	-2115.30518	-33.06718	913.87048	-2076.33545	253.35062	917.65771	-2316.94751	148.45580	918.71112	-2158.04614	32.10836	532.65332	-2265.34546	9.71910	444.07864	-2330.90601	99.55068	223.61041	-2438.00220	45.41747	79.13069	-2504.33301	114.68261	61.65479	-2298.91943	51.08936	36.59224	-1933.56860	214.78021	656.32245	-1948.10217	270.65631	478.92310	-1884.65881	193.51358	356.95248	-1861.41785	245.77071	80.66391	-1912.65076	184.77090	42.86415	-1728.42322	243.87457	106.04131	-2249.67017	66.85310	34.40390	-2290.17358	88.93131	41.32158	-2382.16040	132.66180	54.32700	-2456.43188	141.10208	55.37432	-2477.88110	67.73389	58.09424	-2406.92798	34.68619	36.93814	-2343.00293	11.43034	33.02835	-1689.44250	223.57361	123.70182	-1716.35461	208.96996	113.68579	-1798.56091	162.85992	92.67193	-1874.52991	156.47281	60.07301	-1888.97192	227.29269	49.56760	-1815.34692	261.32455	63.77163	-1760.04639	271.27682	87.61020																																																	-2175.91187	-256.06274	956.12183	
